<svg width="246" height="310" viewBox="0 0 246 310" fill="none" xmlns="http://www.w3.org/2000/svg">
<g style="mix-blend-mode:soft-light">
<path d="M171.797 3.17495C171.797 3.17495 178.545 38.4329 141.472 50.1954C104.398 61.9579 70.9589 46.5805 43.184 77.5613C15.4092 108.542 72.2677 212.764 40.5947 235.936C8.91303 259.109 -77.3103 253.054 -88.6462 214.787C-99.9923 176.512 -124.273 297.042 -124.273 297.042C-124.273 297.042 -3.1382 334.523 58.9811 277.521C121.102 220.528 74.9261 167.921 80.7944 135.695C86.6611 103.461 113.985 82.6798 171.509 77.1169C229.033 71.554 245.041 0.0500858 245.041 0.0500858L171.797 3.17495ZM-41.7139 291.701C-110.872 281.809 -58.9163 261.345 -58.9163 261.345C-58.9163 261.345 -22.5092 270.145 4.60702 264.436C31.7217 258.718 60.8829 226.857 67.0689 239.337C73.2565 251.825 27.4447 301.593 -41.7139 291.701ZM138.334 67.4643C124.87 82.1292 87.3934 84.6431 75.475 103.186C73.9327 105.585 72.9364 108.269 72.0828 110.952C68.6391 121.812 68.3438 133.341 66.3988 144.468C65.5745 149.172 63.844 161.513 56.574 155.648C54.1439 153.689 52.1461 150.72 50.5063 147.241C46.2209 138.156 44.4052 125.541 43.9373 118.054C43.1048 104.74 45.6231 89.7453 55.4941 79.6474C76.3635 58.2921 151.797 52.7912 138.334 67.4643ZM160.68 70.3487C151.62 72.0825 143.875 71.3914 143.38 68.802C142.884 66.2126 149.827 62.7105 158.886 60.9767C167.945 59.2428 175.69 59.9339 176.186 62.5233C176.682 65.1128 169.739 68.6149 160.68 70.3487Z" fill="url(#paint0_radial_40_479)"/>
</g>
<defs>
<radialGradient id="paint0_radial_40_479" cx="0" cy="0" r="1" gradientUnits="userSpaceOnUse" gradientTransform="translate(62.3509 158.84) rotate(-10.8346) scale(176.692 171.226)">
<stop offset="0.0815" stop-color="#530f8a"/>
<stop offset="1" stop-color="#3C0B63"/>
</radialGradient>
</defs>
</svg>
