<svg width="1100" height="590" viewBox="0 0 1100 590" fill="none" xmlns="http://www.w3.org/2000/svg">
<g style="mix-blend-mode:soft-light">
<path d="M937.258 133.3C979.632 90.2692 1071.43 38.8929 1121.96 12.3031L1117.19 0.308284C1117.19 0.308284 893.456 116.535 857.09 192.816C820.725 269.096 807.257 290.898 703.639 344.841C600.021 398.785 499.398 402.746 416.4 385.547C333.402 368.347 66.8525 448.747 -14.0683 516.112C-94.9891 583.477 -14.0916 589.786 -14.0916 589.786C-14.0916 589.786 141.603 480.689 264.099 451.073C386.596 421.456 400.52 474.614 575.024 421.229C579.741 419.785 584.422 418.33 589.095 416.851C564.909 421.479 549.65 420.961 547.374 416.863C541.963 407.091 579.934 400.138 579.934 400.138C579.934 400.138 705.432 367.764 768.94 320.505C832.448 273.245 864.066 220.842 890.886 226.571C917.705 232.294 828.978 311.23 730.373 363.709C728.327 364.8 726.31 365.841 724.281 366.892C827.303 322.243 906.409 269.875 945.437 213.855C1001.72 133.067 1148.51 79.0722 1148.51 79.0722L1136.47 48.7781C1031.91 97.0838 881.102 190.328 937.258 133.3ZM205.248 450.075C112.978 486.438 -36.6067 567.752 40.8688 491.7C40.8688 491.7 227.619 396.532 341.509 399.28C455.41 402.016 297.519 413.712 205.248 450.075ZM423.339 430.991C416.223 435.911 396.351 437.884 378.972 435.394C361.592 432.904 353.269 426.897 360.385 421.976C367.501 417.055 387.373 415.082 404.753 417.572C422.132 420.063 430.455 426.07 423.339 430.991ZM1019.69 132.054C963.533 170.675 914.622 190.874 943.123 163.217C971.61 135.566 1018.07 118.245 1018.07 118.245C1018.07 118.245 1075.82 93.4334 1019.69 132.054Z" fill="url(#paint0_radial_40_516)"/>
</g>
<defs>
<radialGradient id="paint0_radial_40_516" cx="0" cy="0" r="1" gradientUnits="userSpaceOnUse" gradientTransform="translate(548.689 322.296) rotate(-20.4447) scale(497.844 184.916)">
<stop offset="0.0815" stop-color="#530f8a"/>
<stop offset="1" stop-color="#3C0B63"/>
</radialGradient>
</defs>
</svg>
