<svg width="258" height="285" viewBox="0 0 258 285" fill="none" xmlns="http://www.w3.org/2000/svg">
<path d="M184.403 4.57596C184.403 4.57596 190.464 36.2449 153.302 47.5491C116.141 58.8533 83.1113 45.6143 54.8541 74.075C26.5969 102.536 81.2923 195.454 49.2977 216.946C17.2945 238.439 -68.505 234.6 -79.0809 200.303C-89.6669 166 -116.125 275.151 -116.125 275.151C-116.125 275.151 3.86935 306.675 66.8365 254.103C129.805 201.538 84.7839 154.965 91.2367 125.793C97.6881 96.6139 125.304 77.3603 182.726 71.2625C240.148 65.1648 257.442 0.381442 257.442 0.381442L184.403 4.57596ZM-33.7628 268.783C-102.487 261.162 -50.3328 241.731 -50.3328 241.731C-50.3328 241.731 -14.2221 248.982 12.9039 243.324C40.0285 237.658 69.6835 208.378 75.6128 219.516C81.5434 230.662 34.9611 276.404 -33.7628 268.783ZM149.852 63.1813C136.16 76.6591 98.7714 79.6305 86.5474 96.5762C84.9656 98.7689 83.9224 101.208 83.0214 103.644C79.386 113.502 78.8751 123.905 76.7279 133.975C75.8182 138.233 73.862 149.395 66.7284 144.242C64.3438 142.521 62.409 139.881 60.8405 136.775C56.7413 128.662 55.1692 117.32 54.8437 110.577C54.2644 98.586 57.0554 85.0166 67.0807 75.7248C88.2763 56.0743 163.542 49.6959 149.852 63.1813ZM172.063 65.3625C163.003 67.0963 155.299 66.6186 154.854 64.2928C154.409 61.9669 161.392 58.6782 170.452 56.9444C179.511 55.2106 187.215 55.6883 187.66 58.0141C188.105 60.3399 181.122 63.6286 172.063 65.3625Z" fill="url(#paint0_radial_40_396)"/>
<defs>
<radialGradient id="paint0_radial_40_396" cx="0" cy="0" r="1" gradientUnits="userSpaceOnUse" gradientTransform="translate(72.4246 147.013) rotate(-10.8346) scale(176.692 153.796)">
<stop offset="0.0815" stop-color="#530f8a"/>
<stop offset="1" stop-color="#3C0B63"/>
</radialGradient>
</defs>
</svg>
