<svg width="174" height="227" viewBox="0 0 174 227" fill="none" xmlns="http://www.w3.org/2000/svg">
<path d="M44.4111 191.094C-7.65554 189.665 175.036 16.2318 175.036 16.2318L163.349 11.5568C131.663 43.8846 60.5903 114.04 52.6535 101.253C44.7931 88.5797 108.99 28.9887 139.301 1.93942L135.81 0.541504C135.81 0.541504 -29.6555 127.492 6.0028 202.384C41.6611 277.276 224.964 156.023 224.964 156.023L228.531 59.0248C228.531 59.0248 96.4778 192.522 44.4111 191.094ZM73.1563 101.253C91.9479 91.0012 48.6736 153.067 36.7188 143.954C24.7563 134.848 73.1563 101.253 73.1563 101.253ZM47.7799 215.828C46.8479 219.266 40.9202 220.648 34.5493 218.914C28.1785 217.18 23.7709 212.987 24.7028 209.549C25.6347 206.112 31.5625 204.729 37.9334 206.463C44.3042 208.197 48.7118 212.383 47.7799 215.828ZM93.6514 209.435C29.309 223.666 36.7111 197.48 83.9729 188.367C131.227 179.253 171.66 126.873 171.66 126.873L183.615 159.331C183.615 159.331 157.986 195.203 93.6514 209.435Z" fill="url(#paint0_radial_40_555)"/>
<defs>
<radialGradient id="paint0_radial_40_555" cx="0" cy="0" r="1" gradientUnits="userSpaceOnUse" gradientTransform="translate(114.749 113.673) scale(113.456 113.456)">
<stop offset="0.0815" stop-color="#530f8a"/>
<stop offset="1" stop-color="#3C0B63"/>
</radialGradient>
</defs>
</svg>
