<svg width="1100" height="207" viewBox="0 0 1100 207" fill="none" xmlns="http://www.w3.org/2000/svg">
<g style="mix-blend-mode:soft-light">
<path d="M919.278 61.9894C966.654 36.378 1056.64 20.2463 1105.66 12.9537L1105.41 0C1105.41 0 888.822 30.8678 836.267 89.8545C783.712 148.841 766.198 164.622 665.853 179.026C565.508 193.43 482.704 161.879 420.59 116.608C358.477 71.3362 117.994 53.5006 31.9987 88.483C-53.9963 123.465 9.7056 157.759 9.7056 157.759C9.7056 157.759 168.96 109.744 277.261 124.837C385.562 139.929 380.783 194.801 538.449 205.774C542.711 206.07 546.948 206.341 551.184 206.589C530.17 202.463 517.951 196.626 517.344 191.974C515.911 180.887 548.808 187.66 548.808 187.66C548.808 187.66 660.377 201.212 726.171 179.032C791.965 156.853 833.451 118.656 853.471 133.446C873.491 148.231 777.667 191.358 681.83 206.142C679.841 206.45 677.891 206.722 675.927 207C772.979 201.127 852.967 179.612 901.558 140.612C971.627 84.3685 1107 85.0512 1107 85.0512L1106.39 52.3406C1006.99 61.1134 856.494 95.9326 919.278 61.9894ZM229.834 103.267C144.006 105.116 -1.89298 129.145 83.934 84.7854C83.934 84.7854 264.164 60.7569 355.7 103.267C447.249 145.772 315.661 101.419 229.834 103.267ZM412.479 161.777C405.22 163.91 388.507 158.798 375.165 150.364C361.822 141.929 356.889 133.362 364.147 131.229C371.406 129.096 388.12 134.208 401.462 142.642C414.804 151.077 419.738 159.644 412.479 161.777ZM986.506 89.7155C929.288 106.349 883.514 108.198 914.99 92.1806C946.454 76.1636 989.374 76.1636 989.374 76.1636C989.374 76.1636 1043.71 73.0762 986.506 89.7155Z" fill="url(#paint0_radial_40_403)"/>
</g>
<defs>
<radialGradient id="paint0_radial_40_403" cx="0" cy="0" r="1" gradientUnits="userSpaceOnUse" gradientTransform="translate(547.002 103.502) scale(430.902 185.588)">
<stop offset="0.0815" stop-color="#530f8a"/>
<stop offset="1" stop-color="#3C0B63"/>
</radialGradient>
</defs>
</svg>
